<?xml version='1.0' encoding='iso-8859-1'?>
<svg version="1.1" xmlns="http://www.w3.org/2000/svg" viewBox="0 0 30.011 30.011" xmlns:xlink="http://www.w3.org/1999/xlink" enable-background="new 0 0 30.011 30.011">
  <g>
    <g>
      <path d="m29.011,.015h-8c-0.285,0-0.764,0.239-0.899,0.409l-10.149,13.912-3.468-3.464c-0.388-0.388-1.017-0.388-1.405,0l-2.812,2.808c-0.388,0.388-0.388,1.017 0,1.404l4.216,4.212-5.607,5.602h0.003c-0.005,0.005-0.012,0.009-0.018,0.014-1.164,1.163-1.164,3.049 0,4.212 1.164,1.163 3.052,1.163 4.216,0 0.006-0.005 0.009-0.013 0.015-0.019 0,0.001 0,0.005 0,0.005l5.606-5.602 4.216,4.212c0.388,0.388 1.017,0.388 1.406,0l2.811-2.809c0.389-0.388 0.389-1.016 0-1.403l-3.468-3.464 13.929-10.138c0.166-0.133 0.408-0.549 0.408-0.891v-8c-3.55271e-15-0.553-0.448-1-1-1zm-25.327,27.705c-0.388,0.388-1.018,0.388-1.406,0s-0.388-1.017 0-1.404 1.018-0.388 1.406,0c0.388,0.388 0.388,1.016 0,1.404zm2.108-2.106l-1.405-1.404 3.513-3.51 1.405,1.404-3.513,3.51zm11.244-1.404l-1.406,1.403-11.243-11.231 1.405-1.404 11.244,11.232zm10.975-15.476l-13.684,9.962-.805-.804 10.259-10.249c0.388-0.388 0.388-1.016 0-1.403s-1.017-0.388-1.405,0l-10.259,10.248-.805-.804 9.971-13.669h6.727v6.719z"/>
    </g>
  </g>
</svg>
